<?xml version="1.0" standalone="no"?>
<svg xmlns:xlink="http://www.w3.org/1999/xlink" id="wave" style="transform:rotate(0deg); transition: 0.3s" viewBox="0 0 1440 190" version="1.1" xmlns="http://www.w3.org/2000/svg"><defs><linearGradient id="sw-gradient-0" x1="0" x2="0" y1="1" y2="0"><stop stop-color="rgba(73, 187, 189, 1)" offset="0%"/><stop stop-color="rgba(255, 255, 255, 1)" offset="100%"/></linearGradient></defs><path style="transform:translate(0, 0px); opacity:1" fill="url(#sw-gradient-0)" d="M0,152L21.8,155.2C43.6,158,87,165,131,164.7C174.5,165,218,158,262,133C305.5,108,349,63,393,66.5C436.4,70,480,120,524,133C567.3,146,611,120,655,114C698.2,108,742,120,785,120.3C829.1,120,873,108,916,114C960,120,1004,146,1047,145.7C1090.9,146,1135,120,1178,117.2C1221.8,114,1265,133,1309,133C1352.7,133,1396,114,1440,101.3C1483.6,89,1527,82,1571,72.8C1614.5,63,1658,51,1702,60.2C1745.5,70,1789,101,1833,104.5C1876.4,108,1920,82,1964,79.2C2007.3,76,2051,95,2095,91.8C2138.2,89,2182,63,2225,72.8C2269.1,82,2313,127,2356,126.7C2400,127,2444,82,2487,72.8C2530.9,63,2575,89,2618,110.8C2661.8,133,2705,152,2749,158.3C2792.7,165,2836,158,2880,142.5C2923.6,127,2967,101,3011,76C3054.5,51,3098,25,3120,12.7L3141.8,0L3141.8,190L3120,190C3098.2,190,3055,190,3011,190C2967.3,190,2924,190,2880,190C2836.4,190,2793,190,2749,190C2705.5,190,2662,190,2618,190C2574.5,190,2531,190,2487,190C2443.6,190,2400,190,2356,190C2312.7,190,2269,190,2225,190C2181.8,190,2138,190,2095,190C2050.9,190,2007,190,1964,190C1920,190,1876,190,1833,190C1789.1,190,1745,190,1702,190C1658.2,190,1615,190,1571,190C1527.3,190,1484,190,1440,190C1396.4,190,1353,190,1309,190C1265.5,190,1222,190,1178,190C1134.5,190,1091,190,1047,190C1003.6,190,960,190,916,190C872.7,190,829,190,785,190C741.8,190,698,190,655,190C610.9,190,567,190,524,190C480,190,436,190,393,190C349.1,190,305,190,262,190C218.2,190,175,190,131,190C87.3,190,44,190,22,190L0,190Z"/><defs><linearGradient id="sw-gradient-1" x1="0" x2="0" y1="1" y2="0"><stop stop-color="rgba(73, 187, 189, 1)" offset="0%"/><stop stop-color="rgba(255, 255, 255, 1)" offset="100%"/></linearGradient></defs><path style="transform:translate(0, 50px); opacity:0.9" fill="url(#sw-gradient-1)" d="M0,19L21.8,38C43.6,57,87,95,131,95C174.5,95,218,57,262,57C305.5,57,349,95,393,104.5C436.4,114,480,95,524,79.2C567.3,63,611,51,655,41.2C698.2,32,742,25,785,34.8C829.1,44,873,70,916,88.7C960,108,1004,120,1047,114C1090.9,108,1135,82,1178,85.5C1221.8,89,1265,120,1309,114C1352.7,108,1396,63,1440,57C1483.6,51,1527,82,1571,107.7C1614.5,133,1658,152,1702,155.2C1745.5,158,1789,146,1833,133C1876.4,120,1920,108,1964,104.5C2007.3,101,2051,108,2095,110.8C2138.2,114,2182,114,2225,123.5C2269.1,133,2313,152,2356,136.2C2400,120,2444,70,2487,53.8C2530.9,38,2575,57,2618,79.2C2661.8,101,2705,127,2749,136.2C2792.7,146,2836,139,2880,120.3C2923.6,101,2967,70,3011,47.5C3054.5,25,3098,13,3120,6.3L3141.8,0L3141.8,190L3120,190C3098.2,190,3055,190,3011,190C2967.3,190,2924,190,2880,190C2836.4,190,2793,190,2749,190C2705.5,190,2662,190,2618,190C2574.5,190,2531,190,2487,190C2443.6,190,2400,190,2356,190C2312.7,190,2269,190,2225,190C2181.8,190,2138,190,2095,190C2050.9,190,2007,190,1964,190C1920,190,1876,190,1833,190C1789.1,190,1745,190,1702,190C1658.2,190,1615,190,1571,190C1527.3,190,1484,190,1440,190C1396.4,190,1353,190,1309,190C1265.5,190,1222,190,1178,190C1134.5,190,1091,190,1047,190C1003.6,190,960,190,916,190C872.7,190,829,190,785,190C741.8,190,698,190,655,190C610.9,190,567,190,524,190C480,190,436,190,393,190C349.1,190,305,190,262,190C218.2,190,175,190,131,190C87.3,190,44,190,22,190L0,190Z"/><defs><linearGradient id="sw-gradient-2" x1="0" x2="0" y1="1" y2="0"><stop stop-color="rgba(73, 187, 189, 1)" offset="0%"/><stop stop-color="rgba(255, 255, 255, 1)" offset="100%"/></linearGradient></defs><path style="transform:translate(0, 100px); opacity:0.8" fill="url(#sw-gradient-2)" d="M0,57L21.8,76C43.6,95,87,133,131,126.7C174.5,120,218,70,262,44.3C305.5,19,349,19,393,22.2C436.4,25,480,32,524,38C567.3,44,611,51,655,44.3C698.2,38,742,19,785,34.8C829.1,51,873,101,916,101.3C960,101,1004,51,1047,25.3C1090.9,0,1135,0,1178,12.7C1221.8,25,1265,51,1309,69.7C1352.7,89,1396,101,1440,95C1483.6,89,1527,63,1571,63.3C1614.5,63,1658,89,1702,104.5C1745.5,120,1789,127,1833,110.8C1876.4,95,1920,57,1964,38C2007.3,19,2051,19,2095,19C2138.2,19,2182,19,2225,28.5C2269.1,38,2313,57,2356,63.3C2400,70,2444,63,2487,63.3C2530.9,63,2575,70,2618,60.2C2661.8,51,2705,25,2749,12.7C2792.7,0,2836,0,2880,6.3C2923.6,13,2967,25,3011,28.5C3054.5,32,3098,25,3120,22.2L3141.8,19L3141.8,190L3120,190C3098.2,190,3055,190,3011,190C2967.3,190,2924,190,2880,190C2836.4,190,2793,190,2749,190C2705.5,190,2662,190,2618,190C2574.5,190,2531,190,2487,190C2443.6,190,2400,190,2356,190C2312.7,190,2269,190,2225,190C2181.8,190,2138,190,2095,190C2050.9,190,2007,190,1964,190C1920,190,1876,190,1833,190C1789.1,190,1745,190,1702,190C1658.2,190,1615,190,1571,190C1527.3,190,1484,190,1440,190C1396.4,190,1353,190,1309,190C1265.5,190,1222,190,1178,190C1134.5,190,1091,190,1047,190C1003.6,190,960,190,916,190C872.7,190,829,190,785,190C741.8,190,698,190,655,190C610.9,190,567,190,524,190C480,190,436,190,393,190C349.1,190,305,190,262,190C218.2,190,175,190,131,190C87.3,190,44,190,22,190L0,190Z"/></svg>