<svg id="visual" viewBox="0 0 1920 1080" width="1920" height="1080" xmlns="http://www.w3.org/2000/svg" xmlns:xlink="http://www.w3.org/1999/xlink" version="1.1"><rect x="0" y="0" width="1920" height="1080" fill="#001220"></rect><path d="M0 816L13.8 817.8C27.7 819.7 55.3 823.3 83.2 821.5C111 819.7 139 812.3 166.8 802.7C194.7 793 222.3 781 250.2 781C278 781 306 793 333.8 797.2C361.7 801.3 389.3 797.7 417.2 799.2C445 800.7 473 807.3 500.8 802.2C528.7 797 556.3 780 584.2 788C612 796 640 829 667.8 832.5C695.7 836 723.3 810 751.2 801.7C779 793.3 807 802.7 834.8 810.8C862.7 819 890.3 826 918.2 827.7C946 829.3 974 825.7 1001.8 827C1029.7 828.3 1057.3 834.7 1085.2 840.8C1113 847 1141 853 1168.8 849.3C1196.7 845.7 1224.3 832.3 1252.2 823.3C1280 814.3 1308 809.7 1335.8 814C1363.7 818.3 1391.3 831.7 1419.2 827.3C1447 823 1475 801 1502.8 799.5C1530.7 798 1558.3 817 1586.2 815.5C1614 814 1642 792 1669.8 783.3C1697.7 774.7 1725.3 779.3 1753.2 780C1781 780.7 1809 777.3 1836.8 773.2C1864.7 769 1892.3 764 1906.2 761.5L1920 759L1920 1081L1906.2 1081C1892.3 1081 1864.7 1081 1836.8 1081C1809 1081 1781 1081 1753.2 1081C1725.3 1081 1697.7 1081 1669.8 1081C1642 1081 1614 1081 1586.2 1081C1558.3 1081 1530.7 1081 1502.8 1081C1475 1081 1447 1081 1419.2 1081C1391.3 1081 1363.7 1081 1335.8 1081C1308 1081 1280 1081 1252.2 1081C1224.3 1081 1196.7 1081 1168.8 1081C1141 1081 1113 1081 1085.2 1081C1057.3 1081 1029.7 1081 1001.8 1081C974 1081 946 1081 918.2 1081C890.3 1081 862.7 1081 834.8 1081C807 1081 779 1081 751.2 1081C723.3 1081 695.7 1081 667.8 1081C640 1081 612 1081 584.2 1081C556.3 1081 528.7 1081 500.8 1081C473 1081 445 1081 417.2 1081C389.3 1081 361.7 1081 333.8 1081C306 1081 278 1081 250.2 1081C222.3 1081 194.7 1081 166.8 1081C139 1081 111 1081 83.2 1081C55.3 1081 27.7 1081 13.8 1081L0 1081Z" fill="#49bbbd"></path><path d="M0 863L13.8 871.8C27.7 880.7 55.3 898.3 83.2 902.3C111 906.3 139 896.7 166.8 891.3C194.7 886 222.3 885 250.2 887.2C278 889.3 306 894.7 333.8 887.8C361.7 881 389.3 862 417.2 859.7C445 857.3 473 871.7 500.8 869.7C528.7 867.7 556.3 849.3 584.2 850.7C612 852 640 873 667.8 874.8C695.7 876.7 723.3 859.3 751.2 860.8C779 862.3 807 882.7 834.8 879.5C862.7 876.3 890.3 849.7 918.2 837C946 824.3 974 825.7 1001.8 832.7C1029.7 839.7 1057.3 852.3 1085.2 856.5C1113 860.7 1141 856.3 1168.8 853C1196.7 849.7 1224.3 847.3 1252.2 851.3C1280 855.3 1308 865.7 1335.8 864.3C1363.7 863 1391.3 850 1419.2 839.2C1447 828.3 1475 819.7 1502.8 832.5C1530.7 845.3 1558.3 879.7 1586.2 886.8C1614 894 1642 874 1669.8 857.2C1697.7 840.3 1725.3 826.7 1753.2 836.8C1781 847 1809 881 1836.8 893C1864.7 905 1892.3 895 1906.2 890L1920 885L1920 1081L1906.2 1081C1892.3 1081 1864.7 1081 1836.8 1081C1809 1081 1781 1081 1753.2 1081C1725.3 1081 1697.7 1081 1669.8 1081C1642 1081 1614 1081 1586.2 1081C1558.3 1081 1530.7 1081 1502.8 1081C1475 1081 1447 1081 1419.2 1081C1391.3 1081 1363.7 1081 1335.8 1081C1308 1081 1280 1081 1252.2 1081C1224.3 1081 1196.7 1081 1168.8 1081C1141 1081 1113 1081 1085.2 1081C1057.3 1081 1029.7 1081 1001.8 1081C974 1081 946 1081 918.2 1081C890.3 1081 862.7 1081 834.8 1081C807 1081 779 1081 751.2 1081C723.3 1081 695.7 1081 667.8 1081C640 1081 612 1081 584.2 1081C556.3 1081 528.7 1081 500.8 1081C473 1081 445 1081 417.2 1081C389.3 1081 361.7 1081 333.8 1081C306 1081 278 1081 250.2 1081C222.3 1081 194.7 1081 166.8 1081C139 1081 111 1081 83.2 1081C55.3 1081 27.7 1081 13.8 1081L0 1081Z" fill="#80ccce"></path><path d="M0 923L13.8 920.8C27.7 918.7 55.3 914.3 83.2 913.8C111 913.3 139 916.7 166.8 915.7C194.7 914.7 222.3 909.3 250.2 907.5C278 905.7 306 907.3 333.8 908.2C361.7 909 389.3 909 417.2 905.7C445 902.3 473 895.7 500.8 903.3C528.7 911 556.3 933 584.2 936.7C612 940.3 640 925.7 667.8 917.7C695.7 909.7 723.3 908.3 751.2 908.7C779 909 807 911 834.8 919C862.7 927 890.3 941 918.2 934.3C946 927.7 974 900.3 1001.8 900.2C1029.7 900 1057.3 927 1085.2 934.2C1113 941.3 1141 928.7 1168.8 927.2C1196.7 925.7 1224.3 935.3 1252.2 934.3C1280 933.3 1308 921.7 1335.8 925.2C1363.7 928.7 1391.3 947.3 1419.2 949C1447 950.7 1475 935.3 1502.8 928C1530.7 920.7 1558.3 921.3 1586.2 919C1614 916.7 1642 911.3 1669.8 904.7C1697.7 898 1725.3 890 1753.2 888C1781 886 1809 890 1836.8 896.3C1864.7 902.7 1892.3 911.3 1906.2 915.7L1920 920L1920 1081L1906.2 1081C1892.3 1081 1864.7 1081 1836.8 1081C1809 1081 1781 1081 1753.2 1081C1725.3 1081 1697.7 1081 1669.8 1081C1642 1081 1614 1081 1586.2 1081C1558.3 1081 1530.7 1081 1502.8 1081C1475 1081 1447 1081 1419.2 1081C1391.3 1081 1363.7 1081 1335.8 1081C1308 1081 1280 1081 1252.2 1081C1224.3 1081 1196.7 1081 1168.8 1081C1141 1081 1113 1081 1085.2 1081C1057.3 1081 1029.7 1081 1001.8 1081C974 1081 946 1081 918.2 1081C890.3 1081 862.7 1081 834.8 1081C807 1081 779 1081 751.2 1081C723.3 1081 695.7 1081 667.8 1081C640 1081 612 1081 584.2 1081C556.3 1081 528.7 1081 500.8 1081C473 1081 445 1081 417.2 1081C389.3 1081 361.7 1081 333.8 1081C306 1081 278 1081 250.2 1081C222.3 1081 194.7 1081 166.8 1081C139 1081 111 1081 83.2 1081C55.3 1081 27.7 1081 13.8 1081L0 1081Z" fill="#adddde"></path><path d="M0 973L13.8 973.7C27.7 974.3 55.3 975.7 83.2 978.7C111 981.7 139 986.3 166.8 991.5C194.7 996.7 222.3 1002.3 250.2 999C278 995.7 306 983.3 333.8 978.2C361.7 973 389.3 975 417.2 971.7C445 968.3 473 959.7 500.8 961.8C528.7 964 556.3 977 584.2 988.2C612 999.3 640 1008.7 667.8 1008.5C695.7 1008.3 723.3 998.7 751.2 993.5C779 988.3 807 987.7 834.8 976.2C862.7 964.7 890.3 942.3 918.2 947.5C946 952.7 974 985.3 1001.8 995.7C1029.7 1006 1057.3 994 1085.2 982.2C1113 970.3 1141 958.7 1168.8 951.3C1196.7 944 1224.3 941 1252.2 944.5C1280 948 1308 958 1335.8 968.8C1363.7 979.7 1391.3 991.3 1419.2 999.7C1447 1008 1475 1013 1502.8 1011.3C1530.7 1009.7 1558.3 1001.3 1586.2 996.2C1614 991 1642 989 1669.8 992.7C1697.7 996.3 1725.3 1005.7 1753.2 1005.5C1781 1005.3 1809 995.7 1836.8 990.5C1864.7 985.3 1892.3 984.7 1906.2 984.3L1920 984L1920 1081L1906.2 1081C1892.3 1081 1864.7 1081 1836.8 1081C1809 1081 1781 1081 1753.2 1081C1725.3 1081 1697.7 1081 1669.8 1081C1642 1081 1614 1081 1586.2 1081C1558.3 1081 1530.7 1081 1502.8 1081C1475 1081 1447 1081 1419.2 1081C1391.3 1081 1363.7 1081 1335.8 1081C1308 1081 1280 1081 1252.2 1081C1224.3 1081 1196.7 1081 1168.8 1081C1141 1081 1113 1081 1085.2 1081C1057.3 1081 1029.7 1081 1001.8 1081C974 1081 946 1081 918.2 1081C890.3 1081 862.7 1081 834.8 1081C807 1081 779 1081 751.2 1081C723.3 1081 695.7 1081 667.8 1081C640 1081 612 1081 584.2 1081C556.3 1081 528.7 1081 500.8 1081C473 1081 445 1081 417.2 1081C389.3 1081 361.7 1081 333.8 1081C306 1081 278 1081 250.2 1081C222.3 1081 194.7 1081 166.8 1081C139 1081 111 1081 83.2 1081C55.3 1081 27.7 1081 13.8 1081L0 1081Z" fill="#d7eeee"></path><path d="M0 1023L13.8 1023.3C27.7 1023.7 55.3 1024.3 83.2 1032.5C111 1040.7 139 1056.3 166.8 1059.8C194.7 1063.3 222.3 1054.7 250.2 1044.5C278 1034.3 306 1022.7 333.8 1024.3C361.7 1026 389.3 1041 417.2 1041.7C445 1042.3 473 1028.7 500.8 1025.2C528.7 1021.7 556.3 1028.3 584.2 1032C612 1035.7 640 1036.3 667.8 1040C695.7 1043.7 723.3 1050.3 751.2 1047.5C779 1044.7 807 1032.3 834.8 1029.3C862.7 1026.3 890.3 1032.7 918.2 1027C946 1021.3 974 1003.7 1001.8 1000.7C1029.7 997.7 1057.3 1009.3 1085.2 1012.2C1113 1015 1141 1009 1168.8 1001.3C1196.7 993.7 1224.3 984.3 1252.2 981.8C1280 979.3 1308 983.7 1335.8 987.8C1363.7 992 1391.3 996 1419.2 996.3C1447 996.7 1475 993.3 1502.8 1005.7C1530.7 1018 1558.3 1046 1586.2 1049.2C1614 1052.3 1642 1030.7 1669.8 1016.7C1697.7 1002.7 1725.3 996.3 1753.2 1005.2C1781 1014 1809 1038 1836.8 1042.5C1864.7 1047 1892.3 1032 1906.2 1024.5L1920 1017L1920 1081L1906.2 1081C1892.3 1081 1864.7 1081 1836.8 1081C1809 1081 1781 1081 1753.2 1081C1725.3 1081 1697.7 1081 1669.8 1081C1642 1081 1614 1081 1586.2 1081C1558.3 1081 1530.7 1081 1502.8 1081C1475 1081 1447 1081 1419.2 1081C1391.3 1081 1363.7 1081 1335.8 1081C1308 1081 1280 1081 1252.2 1081C1224.3 1081 1196.7 1081 1168.8 1081C1141 1081 1113 1081 1085.2 1081C1057.3 1081 1029.7 1081 1001.8 1081C974 1081 946 1081 918.2 1081C890.3 1081 862.7 1081 834.8 1081C807 1081 779 1081 751.2 1081C723.3 1081 695.7 1081 667.8 1081C640 1081 612 1081 584.2 1081C556.3 1081 528.7 1081 500.8 1081C473 1081 445 1081 417.2 1081C389.3 1081 361.7 1081 333.8 1081C306 1081 278 1081 250.2 1081C222.3 1081 194.7 1081 166.8 1081C139 1081 111 1081 83.2 1081C55.3 1081 27.7 1081 13.8 1081L0 1081Z" fill="#ffffff"></path></svg>