<svg id="visual" viewBox="0 0 1920 1080" width="1920" height="1080" xmlns="http://www.w3.org/2000/svg" xmlns:xlink="http://www.w3.org/1999/xlink" version="1.1"><rect x="0" y="0" width="1920" height="1080" fill="#002233"></rect><path d="M0 1009L11 1010.8C22 1012.7 44 1016.3 66 1010.8C88 1005.3 110 990.7 132.2 968.8C154.3 947 176.7 918 198.8 918C221 918 243 947 265 964.5C287 982 309 988 331 982.5C353 977 375 960 397 954.3C419 948.7 441 954.3 463.2 971.5C485.3 988.7 507.7 1017.3 529.8 1001.2C552 985 574 924 596 921.8C618 919.7 640 976.3 662 991.7C684 1007 706 981 728 968.8C750 956.7 772 958.3 794.2 967.8C816.3 977.3 838.7 994.7 860.8 980.8C883 967 905 922 927 923C949 924 971 971 993 976.5C1015 982 1037 946 1059.2 922.5C1081.3 899 1103.7 888 1125.8 903.5C1148 919 1170 961 1192 993.7C1214 1026.3 1236 1049.7 1258 1049.7C1280 1049.7 1302 1026.3 1324 1002C1346 977.7 1368 952.3 1390.2 934.5C1412.3 916.7 1434.7 906.3 1456.8 901.2C1479 896 1501 896 1523 898C1545 900 1567 904 1589 916C1611 928 1633 948 1655 968C1677 988 1699 1008 1721.2 996.5C1743.3 985 1765.7 942 1787.8 933.7C1810 925.3 1832 951.7 1854 960.2C1876 968.7 1898 959.3 1909 954.7L1920 950L1920 1081L1909 1081C1898 1081 1876 1081 1854 1081C1832 1081 1810 1081 1787.8 1081C1765.7 1081 1743.3 1081 1721.2 1081C1699 1081 1677 1081 1655 1081C1633 1081 1611 1081 1589 1081C1567 1081 1545 1081 1523 1081C1501 1081 1479 1081 1456.8 1081C1434.7 1081 1412.3 1081 1390.2 1081C1368 1081 1346 1081 1324 1081C1302 1081 1280 1081 1258 1081C1236 1081 1214 1081 1192 1081C1170 1081 1148 1081 1125.8 1081C1103.7 1081 1081.3 1081 1059.2 1081C1037 1081 1015 1081 993 1081C971 1081 949 1081 927 1081C905 1081 883 1081 860.8 1081C838.7 1081 816.3 1081 794.2 1081C772 1081 750 1081 728 1081C706 1081 684 1081 662 1081C640 1081 618 1081 596 1081C574 1081 552 1081 529.8 1081C507.7 1081 485.3 1081 463.2 1081C441 1081 419 1081 397 1081C375 1081 353 1081 331 1081C309 1081 287 1081 265 1081C243 1081 221 1081 198.8 1081C176.7 1081 154.3 1081 132.2 1081C110 1081 88 1081 66 1081C44 1081 22 1081 11 1081L0 1081Z" fill="#0066FF" stroke-linecap="round" stroke-linejoin="miter"></path></svg>